<mxfile host="app.diagrams.net" agent="Mozilla/5.0 (Windows NT 10.0; Win64; x64) AppleWebKit/537.36 (KHTML, like Gecko) Chrome/134.0.0.0 Safari/537.36" version="26.1.0">
  <diagram name="Page-1" id="uWLB2E14UyJ_3Qgu_-rW">
    <mxGraphModel dx="1434" dy="1872" grid="1" gridSize="10" guides="1" tooltips="1" connect="1" arrows="1" fold="1" page="1" pageScale="1" pageWidth="850" pageHeight="1100" math="0" shadow="0">
      <root>
        <mxCell id="0" />
        <mxCell id="1" parent="0" />
        <mxCell id="KQ-6GV_P0YDiarBW57qq-1" value="" style="rounded=0;whiteSpace=wrap;html=1;dashed=1;" vertex="1" parent="1">
          <mxGeometry y="40" width="260" height="820" as="geometry" />
        </mxCell>
        <mxCell id="KQ-6GV_P0YDiarBW57qq-2" value="" style="rounded=0;whiteSpace=wrap;html=1;dashed=1;" vertex="1" parent="1">
          <mxGeometry x="260" width="230" height="820" as="geometry" />
        </mxCell>
        <mxCell id="KQ-6GV_P0YDiarBW57qq-3" value="Khách hàng" style="rounded=0;whiteSpace=wrap;html=1;" vertex="1" parent="1">
          <mxGeometry y="-20" width="260" height="60" as="geometry" />
        </mxCell>
        <mxCell id="KQ-6GV_P0YDiarBW57qq-4" value="Hệ thống" style="rounded=0;whiteSpace=wrap;html=1;" vertex="1" parent="1">
          <mxGeometry x="260" y="-20" width="230" height="60" as="geometry" />
        </mxCell>
        <mxCell id="KQ-6GV_P0YDiarBW57qq-5" value="" style="ellipse;html=1;shape=startState;fillColor=#000000;strokeColor=#ff0000;" vertex="1" parent="1">
          <mxGeometry x="140" y="60" width="30" height="30" as="geometry" />
        </mxCell>
        <mxCell id="KQ-6GV_P0YDiarBW57qq-6" value="" style="edgeStyle=orthogonalEdgeStyle;html=1;verticalAlign=bottom;endArrow=open;endSize=8;strokeColor=#ff0000;rounded=0;entryX=0.5;entryY=0;entryDx=0;entryDy=0;" edge="1" source="KQ-6GV_P0YDiarBW57qq-5" parent="1" target="KQ-6GV_P0YDiarBW57qq-8">
          <mxGeometry relative="1" as="geometry">
            <mxPoint x="155" y="150" as="targetPoint" />
          </mxGeometry>
        </mxCell>
        <mxCell id="KQ-6GV_P0YDiarBW57qq-7" value="Bắt đầu" style="text;html=1;align=center;verticalAlign=middle;whiteSpace=wrap;rounded=0;" vertex="1" parent="1">
          <mxGeometry x="90" y="60" width="60" height="30" as="geometry" />
        </mxCell>
        <mxCell id="KQ-6GV_P0YDiarBW57qq-8" value="Nhấn nút ghi nhận đơn hàng" style="rounded=1;whiteSpace=wrap;html=1;arcSize=40;fontColor=#000000;fillColor=#ffffc0;strokeColor=#ff0000;" vertex="1" parent="1">
          <mxGeometry x="95" y="130" width="120" height="40" as="geometry" />
        </mxCell>
        <mxCell id="KQ-6GV_P0YDiarBW57qq-12" value="Nhập mã khách hàng" style="rounded=1;whiteSpace=wrap;html=1;arcSize=40;fontColor=#000000;fillColor=#ffffc0;strokeColor=#ff0000;" vertex="1" parent="1">
          <mxGeometry x="90" y="220" width="120" height="40" as="geometry" />
        </mxCell>
        <mxCell id="KQ-6GV_P0YDiarBW57qq-18" value="" style="edgeStyle=orthogonalEdgeStyle;html=1;verticalAlign=bottom;endArrow=open;endSize=8;strokeColor=#ff0000;rounded=0;entryX=0.5;entryY=0;entryDx=0;entryDy=0;exitX=0.5;exitY=1;exitDx=0;exitDy=0;" edge="1" parent="1" target="KQ-6GV_P0YDiarBW57qq-19" source="KQ-6GV_P0YDiarBW57qq-37">
          <mxGeometry relative="1" as="geometry">
            <mxPoint x="150" y="400" as="targetPoint" />
            <Array as="points" />
            <mxPoint x="150" y="530" as="sourcePoint" />
          </mxGeometry>
        </mxCell>
        <mxCell id="KQ-6GV_P0YDiarBW57qq-19" value="Chọn kích thước số lưởng" style="rounded=1;whiteSpace=wrap;html=1;arcSize=40;fontColor=#000000;fillColor=#ffffc0;strokeColor=#ff0000;" vertex="1" parent="1">
          <mxGeometry x="80" y="480" width="120" height="40" as="geometry" />
        </mxCell>
        <mxCell id="KQ-6GV_P0YDiarBW57qq-20" value="Yêu nhập mã khách hàng" style="rounded=1;whiteSpace=wrap;html=1;arcSize=40;fontColor=#000000;fillColor=#ffffc0;strokeColor=#ff0000;" vertex="1" parent="1">
          <mxGeometry x="315" y="130" width="120" height="40" as="geometry" />
        </mxCell>
        <mxCell id="KQ-6GV_P0YDiarBW57qq-22" value="" style="edgeStyle=orthogonalEdgeStyle;html=1;verticalAlign=bottom;endArrow=open;endSize=8;strokeColor=#ff0000;rounded=0;entryX=0;entryY=0.5;entryDx=0;entryDy=0;exitX=1;exitY=0.5;exitDx=0;exitDy=0;" edge="1" parent="1" source="KQ-6GV_P0YDiarBW57qq-8" target="KQ-6GV_P0YDiarBW57qq-20">
          <mxGeometry relative="1" as="geometry">
            <mxPoint x="160" y="440" as="targetPoint" />
            <Array as="points" />
            <mxPoint x="160" y="320" as="sourcePoint" />
          </mxGeometry>
        </mxCell>
        <mxCell id="KQ-6GV_P0YDiarBW57qq-23" value="Hiển thị thông tin khách hàng" style="rounded=1;whiteSpace=wrap;html=1;arcSize=40;fontColor=#000000;fillColor=#ffffc0;strokeColor=#ff0000;" vertex="1" parent="1">
          <mxGeometry x="270" y="310" width="120" height="40" as="geometry" />
        </mxCell>
        <mxCell id="KQ-6GV_P0YDiarBW57qq-25" value="" style="edgeStyle=orthogonalEdgeStyle;html=1;verticalAlign=bottom;endArrow=open;endSize=8;strokeColor=#ff0000;rounded=0;exitX=0.5;exitY=1;exitDx=0;exitDy=0;entryX=0.5;entryY=0;entryDx=0;entryDy=0;" edge="1" parent="1" source="KQ-6GV_P0YDiarBW57qq-20" target="KQ-6GV_P0YDiarBW57qq-12">
          <mxGeometry relative="1" as="geometry">
            <mxPoint x="375" y="210" as="targetPoint" />
            <Array as="points" />
            <mxPoint x="160" y="320" as="sourcePoint" />
          </mxGeometry>
        </mxCell>
        <mxCell id="KQ-6GV_P0YDiarBW57qq-26" value="" style="edgeStyle=orthogonalEdgeStyle;html=1;verticalAlign=bottom;endArrow=open;endSize=8;strokeColor=#ff0000;rounded=0;exitX=1;exitY=0.5;exitDx=0;exitDy=0;entryX=0.094;entryY=0.55;entryDx=0;entryDy=0;entryPerimeter=0;" edge="1" parent="1" source="KQ-6GV_P0YDiarBW57qq-12" target="KQ-6GV_P0YDiarBW57qq-48">
          <mxGeometry relative="1" as="geometry">
            <mxPoint x="310" y="219.5" as="targetPoint" />
            <Array as="points" />
            <mxPoint x="210" y="219.5" as="sourcePoint" />
          </mxGeometry>
        </mxCell>
        <mxCell id="KQ-6GV_P0YDiarBW57qq-37" value="Chọn hương vị từ danh sách" style="rounded=1;whiteSpace=wrap;html=1;arcSize=40;fontColor=#000000;fillColor=#ffffc0;strokeColor=#ff0000;" vertex="1" parent="1">
          <mxGeometry x="95" y="280" width="120" height="40" as="geometry" />
        </mxCell>
        <mxCell id="KQ-6GV_P0YDiarBW57qq-40" value="" style="edgeStyle=orthogonalEdgeStyle;html=1;verticalAlign=bottom;endArrow=open;endSize=8;strokeColor=#ff0000;rounded=0;entryX=0.45;entryY=0.05;entryDx=0;entryDy=0;exitX=0.5;exitY=1;exitDx=0;exitDy=0;entryPerimeter=0;" edge="1" parent="1" source="KQ-6GV_P0YDiarBW57qq-12" target="KQ-6GV_P0YDiarBW57qq-37">
          <mxGeometry relative="1" as="geometry">
            <mxPoint x="165" y="140" as="targetPoint" />
            <mxPoint x="165" y="100" as="sourcePoint" />
          </mxGeometry>
        </mxCell>
        <mxCell id="KQ-6GV_P0YDiarBW57qq-41" value="" style="shape=line;html=1;strokeWidth=6;strokeColor=#ff0000;" vertex="1" parent="1">
          <mxGeometry x="40" y="560" width="200" height="10" as="geometry" />
        </mxCell>
        <mxCell id="KQ-6GV_P0YDiarBW57qq-42" value="" style="edgeStyle=orthogonalEdgeStyle;html=1;verticalAlign=bottom;endArrow=open;endSize=8;strokeColor=#ff0000;rounded=0;exitX=0.46;exitY=0.6;exitDx=0;exitDy=0;exitPerimeter=0;" edge="1" parent="1" source="KQ-6GV_P0YDiarBW57qq-41" target="KQ-6GV_P0YDiarBW57qq-43">
          <mxGeometry relative="1" as="geometry">
            <mxPoint x="325" y="230" as="targetPoint" />
            <Array as="points" />
            <mxPoint x="220" y="229.5" as="sourcePoint" />
          </mxGeometry>
        </mxCell>
        <mxCell id="KQ-6GV_P0YDiarBW57qq-43" value="Không xác nhận đơn hàng" style="rounded=1;whiteSpace=wrap;html=1;arcSize=40;fontColor=#000000;fillColor=#ffffc0;strokeColor=#ff0000;" vertex="1" parent="1">
          <mxGeometry x="10" y="600" width="120" height="40" as="geometry" />
        </mxCell>
        <mxCell id="KQ-6GV_P0YDiarBW57qq-44" value="" style="edgeStyle=orthogonalEdgeStyle;html=1;verticalAlign=bottom;endArrow=open;endSize=8;strokeColor=#ff0000;rounded=0;exitX=0.46;exitY=0.6;exitDx=0;exitDy=0;exitPerimeter=0;" edge="1" parent="1" target="KQ-6GV_P0YDiarBW57qq-45">
          <mxGeometry relative="1" as="geometry">
            <mxPoint x="405" y="230" as="targetPoint" />
            <Array as="points" />
            <mxPoint x="212" y="566" as="sourcePoint" />
          </mxGeometry>
        </mxCell>
        <mxCell id="KQ-6GV_P0YDiarBW57qq-45" value="xác nhận đơn hàng" style="rounded=1;whiteSpace=wrap;html=1;arcSize=40;fontColor=#000000;fillColor=#ffffc0;strokeColor=#ff0000;" vertex="1" parent="1">
          <mxGeometry x="140" y="610" width="120" height="40" as="geometry" />
        </mxCell>
        <mxCell id="KQ-6GV_P0YDiarBW57qq-46" value="" style="edgeStyle=orthogonalEdgeStyle;html=1;verticalAlign=bottom;endArrow=open;endSize=8;strokeColor=#ff0000;rounded=0;exitX=1;exitY=0.5;exitDx=0;exitDy=0;" edge="1" parent="1" source="KQ-6GV_P0YDiarBW57qq-19" target="KQ-6GV_P0YDiarBW57qq-47">
          <mxGeometry relative="1" as="geometry">
            <mxPoint x="410" y="500" as="targetPoint" />
            <Array as="points" />
            <mxPoint x="220" y="229.5" as="sourcePoint" />
          </mxGeometry>
        </mxCell>
        <mxCell id="KQ-6GV_P0YDiarBW57qq-47" value="Kiểm tra tình trạng hàng,tính toán chi phí và yêu cầu xác nhận" style="rounded=1;whiteSpace=wrap;html=1;arcSize=40;fontColor=#000000;fillColor=#ffffc0;strokeColor=#ff0000;" vertex="1" parent="1">
          <mxGeometry x="305" y="470" width="135" height="50" as="geometry" />
        </mxCell>
        <mxCell id="KQ-6GV_P0YDiarBW57qq-48" value="Kiểm tra hợp lệ" style="rhombus;whiteSpace=wrap;html=1;fontColor=#000000;fillColor=#ffffc0;strokeColor=#ff0000;" vertex="1" parent="1">
          <mxGeometry x="332.5" y="210" width="80" height="40" as="geometry" />
        </mxCell>
        <mxCell id="KQ-6GV_P0YDiarBW57qq-49" value="no" style="edgeStyle=orthogonalEdgeStyle;html=1;align=left;verticalAlign=bottom;endArrow=open;endSize=8;strokeColor=#ff0000;rounded=0;" edge="1" source="KQ-6GV_P0YDiarBW57qq-48" parent="1">
          <mxGeometry x="-1" relative="1" as="geometry">
            <mxPoint x="510" y="280" as="targetPoint" />
          </mxGeometry>
        </mxCell>
        <mxCell id="KQ-6GV_P0YDiarBW57qq-50" value="yes" style="edgeStyle=orthogonalEdgeStyle;html=1;align=left;verticalAlign=top;endArrow=open;endSize=8;strokeColor=#ff0000;rounded=0;entryX=0.5;entryY=0;entryDx=0;entryDy=0;" edge="1" source="KQ-6GV_P0YDiarBW57qq-48" parent="1" target="KQ-6GV_P0YDiarBW57qq-23">
          <mxGeometry x="-1" relative="1" as="geometry">
            <mxPoint x="370" y="360" as="targetPoint" />
          </mxGeometry>
        </mxCell>
        <mxCell id="KQ-6GV_P0YDiarBW57qq-51" value="" style="edgeStyle=orthogonalEdgeStyle;html=1;verticalAlign=bottom;endArrow=open;endSize=8;strokeColor=#ff0000;rounded=0;exitX=0.5;exitY=1;exitDx=0;exitDy=0;entryX=0.5;entryY=0;entryDx=0;entryDy=0;" edge="1" parent="1" source="KQ-6GV_P0YDiarBW57qq-45" target="KQ-6GV_P0YDiarBW57qq-52">
          <mxGeometry relative="1" as="geometry">
            <mxPoint x="210" y="620" as="targetPoint" />
            <Array as="points" />
            <mxPoint x="222" y="576" as="sourcePoint" />
          </mxGeometry>
        </mxCell>
        <mxCell id="KQ-6GV_P0YDiarBW57qq-52" value="K" style="ellipse;html=1;shape=endState;fillColor=#000000;strokeColor=#ff0000;" vertex="1" parent="1">
          <mxGeometry x="125" y="810" width="30" height="30" as="geometry" />
        </mxCell>
        <mxCell id="KQ-6GV_P0YDiarBW57qq-53" value="" style="edgeStyle=orthogonalEdgeStyle;html=1;verticalAlign=bottom;endArrow=open;endSize=8;strokeColor=#ff0000;rounded=0;exitX=0.5;exitY=1;exitDx=0;exitDy=0;entryX=0;entryY=0.5;entryDx=0;entryDy=0;" edge="1" parent="1" source="KQ-6GV_P0YDiarBW57qq-43" target="KQ-6GV_P0YDiarBW57qq-52">
          <mxGeometry relative="1" as="geometry">
            <mxPoint x="150" y="820" as="targetPoint" />
            <Array as="points" />
            <mxPoint x="210" y="660" as="sourcePoint" />
          </mxGeometry>
        </mxCell>
      </root>
    </mxGraphModel>
  </diagram>
</mxfile>
